<svg version="1.1" xmlns="http://www.w3.org/2000/svg" xmlns:xlink="http://www.w3.org/1999/xlink" width="781.57080078125" height="672"><defs/><g><text fill="#eeeeee" stroke="none" font-family="Arial" font-size="24px" font-style="normal" font-weight="normal" text-decoration="none" x="0" y="0">UNREGISTERED</text><text fill="#eeeeee" stroke="none" font-family="Arial" font-size="24px" font-style="normal" font-weight="normal" text-decoration="none" x="0" y="30">UNREGISTERED</text><text fill="#eeeeee" stroke="none" font-family="Arial" font-size="24px" font-style="normal" font-weight="normal" text-decoration="none" x="0" y="60">UNREGISTERED</text><text fill="#eeeeee" stroke="none" font-family="Arial" font-size="24px" font-style="normal" font-weight="normal" text-decoration="none" x="0" y="90">UNREGISTERED</text><text fill="#eeeeee" stroke="none" font-family="Arial" font-size="24px" font-style="normal" font-weight="normal" text-decoration="none" x="0" y="120">UNREGISTERED</text><text fill="#eeeeee" stroke="none" font-family="Arial" font-size="24px" font-style="normal" font-weight="normal" text-decoration="none" x="0" y="150">UNREGISTERED</text><text fill="#eeeeee" stroke="none" font-family="Arial" font-size="24px" font-style="normal" font-weight="normal" text-decoration="none" x="0" y="180">UNREGISTERED</text><text fill="#eeeeee" stroke="none" font-family="Arial" font-size="24px" font-style="normal" font-weight="normal" text-decoration="none" x="0" y="210">UNREGISTERED</text><text fill="#eeeeee" stroke="none" font-family="Arial" font-size="24px" font-style="normal" font-weight="normal" text-decoration="none" x="0" y="240">UNREGISTERED</text><text fill="#eeeeee" stroke="none" font-family="Arial" font-size="24px" font-style="normal" font-weight="normal" text-decoration="none" x="0" y="270">UNREGISTERED</text><text fill="#eeeeee" stroke="none" font-family="Arial" font-size="24px" font-style="normal" font-weight="normal" text-decoration="none" x="0" y="300">UNREGISTERED</text><text fill="#eeeeee" stroke="none" font-family="Arial" font-size="24px" font-style="normal" font-weight="normal" text-decoration="none" x="0" y="330">UNREGISTERED</text><text fill="#eeeeee" stroke="none" font-family="Arial" font-size="24px" font-style="normal" font-weight="normal" text-decoration="none" x="0" y="360">UNREGISTERED</text><text fill="#eeeeee" stroke="none" font-family="Arial" font-size="24px" font-style="normal" font-weight="normal" text-decoration="none" x="0" y="390">UNREGISTERED</text><text fill="#eeeeee" stroke="none" font-family="Arial" font-size="24px" font-style="normal" font-weight="normal" text-decoration="none" x="0" y="420">UNREGISTERED</text><text fill="#eeeeee" stroke="none" font-family="Arial" font-size="24px" font-style="normal" font-weight="normal" text-decoration="none" x="0" y="450">UNREGISTERED</text><text fill="#eeeeee" stroke="none" font-family="Arial" font-size="24px" font-style="normal" font-weight="normal" text-decoration="none" x="0" y="480">UNREGISTERED</text><text fill="#eeeeee" stroke="none" font-family="Arial" font-size="24px" font-style="normal" font-weight="normal" text-decoration="none" x="0" y="510">UNREGISTERED</text><text fill="#eeeeee" stroke="none" font-family="Arial" font-size="24px" font-style="normal" font-weight="normal" text-decoration="none" x="0" y="540">UNREGISTERED</text><text fill="#eeeeee" stroke="none" font-family="Arial" font-size="24px" font-style="normal" font-weight="normal" text-decoration="none" x="0" y="570">UNREGISTERED</text><text fill="#eeeeee" stroke="none" font-family="Arial" font-size="24px" font-style="normal" font-weight="normal" text-decoration="none" x="0" y="600">UNREGISTERED</text><text fill="#eeeeee" stroke="none" font-family="Arial" font-size="24px" font-style="normal" font-weight="normal" text-decoration="none" x="0" y="630">UNREGISTERED</text><text fill="#eeeeee" stroke="none" font-family="Arial" font-size="24px" font-style="normal" font-weight="normal" text-decoration="none" x="0" y="660">UNREGISTERED</text><text fill="#eeeeee" stroke="none" font-family="Arial" font-size="24px" font-style="normal" font-weight="normal" text-decoration="none" x="200" y="0">UNREGISTERED</text><text fill="#eeeeee" stroke="none" font-family="Arial" font-size="24px" font-style="normal" font-weight="normal" text-decoration="none" x="200" y="30">UNREGISTERED</text><text fill="#eeeeee" stroke="none" font-family="Arial" font-size="24px" font-style="normal" font-weight="normal" text-decoration="none" x="200" y="60">UNREGISTERED</text><text fill="#eeeeee" stroke="none" font-family="Arial" font-size="24px" font-style="normal" font-weight="normal" text-decoration="none" x="200" y="90">UNREGISTERED</text><text fill="#eeeeee" stroke="none" font-family="Arial" font-size="24px" font-style="normal" font-weight="normal" text-decoration="none" x="200" y="120">UNREGISTERED</text><text fill="#eeeeee" stroke="none" font-family="Arial" font-size="24px" font-style="normal" font-weight="normal" text-decoration="none" x="200" y="150">UNREGISTERED</text><text fill="#eeeeee" stroke="none" font-family="Arial" font-size="24px" font-style="normal" font-weight="normal" text-decoration="none" x="200" y="180">UNREGISTERED</text><text fill="#eeeeee" stroke="none" font-family="Arial" font-size="24px" font-style="normal" font-weight="normal" text-decoration="none" x="200" y="210">UNREGISTERED</text><text fill="#eeeeee" stroke="none" font-family="Arial" font-size="24px" font-style="normal" font-weight="normal" text-decoration="none" x="200" y="240">UNREGISTERED</text><text fill="#eeeeee" stroke="none" font-family="Arial" font-size="24px" font-style="normal" font-weight="normal" text-decoration="none" x="200" y="270">UNREGISTERED</text><text fill="#eeeeee" stroke="none" font-family="Arial" font-size="24px" font-style="normal" font-weight="normal" text-decoration="none" x="200" y="300">UNREGISTERED</text><text fill="#eeeeee" stroke="none" font-family="Arial" font-size="24px" font-style="normal" font-weight="normal" text-decoration="none" x="200" y="330">UNREGISTERED</text><text fill="#eeeeee" stroke="none" font-family="Arial" font-size="24px" font-style="normal" font-weight="normal" text-decoration="none" x="200" y="360">UNREGISTERED</text><text fill="#eeeeee" stroke="none" font-family="Arial" font-size="24px" font-style="normal" font-weight="normal" text-decoration="none" x="200" y="390">UNREGISTERED</text><text fill="#eeeeee" stroke="none" font-family="Arial" font-size="24px" font-style="normal" font-weight="normal" text-decoration="none" x="200" y="420">UNREGISTERED</text><text fill="#eeeeee" stroke="none" font-family="Arial" font-size="24px" font-style="normal" font-weight="normal" text-decoration="none" x="200" y="450">UNREGISTERED</text><text fill="#eeeeee" stroke="none" font-family="Arial" font-size="24px" font-style="normal" font-weight="normal" text-decoration="none" x="200" y="480">UNREGISTERED</text><text fill="#eeeeee" stroke="none" font-family="Arial" font-size="24px" font-style="normal" font-weight="normal" text-decoration="none" x="200" y="510">UNREGISTERED</text><text fill="#eeeeee" stroke="none" font-family="Arial" font-size="24px" font-style="normal" font-weight="normal" text-decoration="none" x="200" y="540">UNREGISTERED</text><text fill="#eeeeee" stroke="none" font-family="Arial" font-size="24px" font-style="normal" font-weight="normal" text-decoration="none" x="200" y="570">UNREGISTERED</text><text fill="#eeeeee" stroke="none" font-family="Arial" font-size="24px" font-style="normal" font-weight="normal" text-decoration="none" x="200" y="600">UNREGISTERED</text><text fill="#eeeeee" stroke="none" font-family="Arial" font-size="24px" font-style="normal" font-weight="normal" text-decoration="none" x="200" y="630">UNREGISTERED</text><text fill="#eeeeee" stroke="none" font-family="Arial" font-size="24px" font-style="normal" font-weight="normal" text-decoration="none" x="200" y="660">UNREGISTERED</text><text fill="#eeeeee" stroke="none" font-family="Arial" font-size="24px" font-style="normal" font-weight="normal" text-decoration="none" x="400" y="0">UNREGISTERED</text><text fill="#eeeeee" stroke="none" font-family="Arial" font-size="24px" font-style="normal" font-weight="normal" text-decoration="none" x="400" y="30">UNREGISTERED</text><text fill="#eeeeee" stroke="none" font-family="Arial" font-size="24px" font-style="normal" font-weight="normal" text-decoration="none" x="400" y="60">UNREGISTERED</text><text fill="#eeeeee" stroke="none" font-family="Arial" font-size="24px" font-style="normal" font-weight="normal" text-decoration="none" x="400" y="90">UNREGISTERED</text><text fill="#eeeeee" stroke="none" font-family="Arial" font-size="24px" font-style="normal" font-weight="normal" text-decoration="none" x="400" y="120">UNREGISTERED</text><text fill="#eeeeee" stroke="none" font-family="Arial" font-size="24px" font-style="normal" font-weight="normal" text-decoration="none" x="400" y="150">UNREGISTERED</text><text fill="#eeeeee" stroke="none" font-family="Arial" font-size="24px" font-style="normal" font-weight="normal" text-decoration="none" x="400" y="180">UNREGISTERED</text><text fill="#eeeeee" stroke="none" font-family="Arial" font-size="24px" font-style="normal" font-weight="normal" text-decoration="none" x="400" y="210">UNREGISTERED</text><text fill="#eeeeee" stroke="none" font-family="Arial" font-size="24px" font-style="normal" font-weight="normal" text-decoration="none" x="400" y="240">UNREGISTERED</text><text fill="#eeeeee" stroke="none" font-family="Arial" font-size="24px" font-style="normal" font-weight="normal" text-decoration="none" x="400" y="270">UNREGISTERED</text><text fill="#eeeeee" stroke="none" font-family="Arial" font-size="24px" font-style="normal" font-weight="normal" text-decoration="none" x="400" y="300">UNREGISTERED</text><text fill="#eeeeee" stroke="none" font-family="Arial" font-size="24px" font-style="normal" font-weight="normal" text-decoration="none" x="400" y="330">UNREGISTERED</text><text fill="#eeeeee" stroke="none" font-family="Arial" font-size="24px" font-style="normal" font-weight="normal" text-decoration="none" x="400" y="360">UNREGISTERED</text><text fill="#eeeeee" stroke="none" font-family="Arial" font-size="24px" font-style="normal" font-weight="normal" text-decoration="none" x="400" y="390">UNREGISTERED</text><text fill="#eeeeee" stroke="none" font-family="Arial" font-size="24px" font-style="normal" font-weight="normal" text-decoration="none" x="400" y="420">UNREGISTERED</text><text fill="#eeeeee" stroke="none" font-family="Arial" font-size="24px" font-style="normal" font-weight="normal" text-decoration="none" x="400" y="450">UNREGISTERED</text><text fill="#eeeeee" stroke="none" font-family="Arial" font-size="24px" font-style="normal" font-weight="normal" text-decoration="none" x="400" y="480">UNREGISTERED</text><text fill="#eeeeee" stroke="none" font-family="Arial" font-size="24px" font-style="normal" font-weight="normal" text-decoration="none" x="400" y="510">UNREGISTERED</text><text fill="#eeeeee" stroke="none" font-family="Arial" font-size="24px" font-style="normal" font-weight="normal" text-decoration="none" x="400" y="540">UNREGISTERED</text><text fill="#eeeeee" stroke="none" font-family="Arial" font-size="24px" font-style="normal" font-weight="normal" text-decoration="none" x="400" y="570">UNREGISTERED</text><text fill="#eeeeee" stroke="none" font-family="Arial" font-size="24px" font-style="normal" font-weight="normal" text-decoration="none" x="400" y="600">UNREGISTERED</text><text fill="#eeeeee" stroke="none" font-family="Arial" font-size="24px" font-style="normal" font-weight="normal" text-decoration="none" x="400" y="630">UNREGISTERED</text><text fill="#eeeeee" stroke="none" font-family="Arial" font-size="24px" font-style="normal" font-weight="normal" text-decoration="none" x="400" y="660">UNREGISTERED</text><text fill="#eeeeee" stroke="none" font-family="Arial" font-size="24px" font-style="normal" font-weight="normal" text-decoration="none" x="600" y="0">UNREGISTERED</text><text fill="#eeeeee" stroke="none" font-family="Arial" font-size="24px" font-style="normal" font-weight="normal" text-decoration="none" x="600" y="30">UNREGISTERED</text><text fill="#eeeeee" stroke="none" font-family="Arial" font-size="24px" font-style="normal" font-weight="normal" text-decoration="none" x="600" y="60">UNREGISTERED</text><text fill="#eeeeee" stroke="none" font-family="Arial" font-size="24px" font-style="normal" font-weight="normal" text-decoration="none" x="600" y="90">UNREGISTERED</text><text fill="#eeeeee" stroke="none" font-family="Arial" font-size="24px" font-style="normal" font-weight="normal" text-decoration="none" x="600" y="120">UNREGISTERED</text><text fill="#eeeeee" stroke="none" font-family="Arial" font-size="24px" font-style="normal" font-weight="normal" text-decoration="none" x="600" y="150">UNREGISTERED</text><text fill="#eeeeee" stroke="none" font-family="Arial" font-size="24px" font-style="normal" font-weight="normal" text-decoration="none" x="600" y="180">UNREGISTERED</text><text fill="#eeeeee" stroke="none" font-family="Arial" font-size="24px" font-style="normal" font-weight="normal" text-decoration="none" x="600" y="210">UNREGISTERED</text><text fill="#eeeeee" stroke="none" font-family="Arial" font-size="24px" font-style="normal" font-weight="normal" text-decoration="none" x="600" y="240">UNREGISTERED</text><text fill="#eeeeee" stroke="none" font-family="Arial" font-size="24px" font-style="normal" font-weight="normal" text-decoration="none" x="600" y="270">UNREGISTERED</text><text fill="#eeeeee" stroke="none" font-family="Arial" font-size="24px" font-style="normal" font-weight="normal" text-decoration="none" x="600" y="300">UNREGISTERED</text><text fill="#eeeeee" stroke="none" font-family="Arial" font-size="24px" font-style="normal" font-weight="normal" text-decoration="none" x="600" y="330">UNREGISTERED</text><text fill="#eeeeee" stroke="none" font-family="Arial" font-size="24px" font-style="normal" font-weight="normal" text-decoration="none" x="600" y="360">UNREGISTERED</text><text fill="#eeeeee" stroke="none" font-family="Arial" font-size="24px" font-style="normal" font-weight="normal" text-decoration="none" x="600" y="390">UNREGISTERED</text><text fill="#eeeeee" stroke="none" font-family="Arial" font-size="24px" font-style="normal" font-weight="normal" text-decoration="none" x="600" y="420">UNREGISTERED</text><text fill="#eeeeee" stroke="none" font-family="Arial" font-size="24px" font-style="normal" font-weight="normal" text-decoration="none" x="600" y="450">UNREGISTERED</text><text fill="#eeeeee" stroke="none" font-family="Arial" font-size="24px" font-style="normal" font-weight="normal" text-decoration="none" x="600" y="480">UNREGISTERED</text><text fill="#eeeeee" stroke="none" font-family="Arial" font-size="24px" font-style="normal" font-weight="normal" text-decoration="none" x="600" y="510">UNREGISTERED</text><text fill="#eeeeee" stroke="none" font-family="Arial" font-size="24px" font-style="normal" font-weight="normal" text-decoration="none" x="600" y="540">UNREGISTERED</text><text fill="#eeeeee" stroke="none" font-family="Arial" font-size="24px" font-style="normal" font-weight="normal" text-decoration="none" x="600" y="570">UNREGISTERED</text><text fill="#eeeeee" stroke="none" font-family="Arial" font-size="24px" font-style="normal" font-weight="normal" text-decoration="none" x="600" y="600">UNREGISTERED</text><text fill="#eeeeee" stroke="none" font-family="Arial" font-size="24px" font-style="normal" font-weight="normal" text-decoration="none" x="600" y="630">UNREGISTERED</text><text fill="#eeeeee" stroke="none" font-family="Arial" font-size="24px" font-style="normal" font-weight="normal" text-decoration="none" x="600" y="660">UNREGISTERED</text><g transform="translate(-70,-222) scale(1,1)"><rect fill="#C0C0C0" stroke="none" x="151" y="583" width="134.86767578125" height="70" opacity="0.2"/></g><g transform="translate(-70,-222) scale(1,1)"><rect fill="#ffffff" stroke="none" x="144" y="576" width="134.86767578125" height="70"/></g><g transform="translate(-70,-222) scale(1,1)"><path fill="none" stroke="#000000" d="M 144 576 L 278.86767578125 576 L 278.86767578125 646 L 144 646 L 144 576 Z Z" stroke-miterlimit="10"/></g><g transform="translate(-70,-222) scale(1,1)"><path fill="none" stroke="#000000" d="M 144 601 L 278.86767578125 601" stroke-miterlimit="10"/></g><g transform="translate(-70,-222) scale(1,1)"><path fill="none" stroke="#000000" d="M 144 611 L 278.86767578125 611" stroke-miterlimit="10"/></g><g transform="translate(-70,-222) scale(1,1)"><g><path fill="none" stroke="none"/><text fill="#000000" stroke="none" font-family="Arial" font-size="13px" font-style="normal" font-weight="bold" text-decoration="none" x="190.8388671875" y="595.5">Sensor</text></g></g><g transform="translate(-70,-222) scale(1,1)"><g><path fill="none" stroke="none"/><text fill="#000000" stroke="none" font-family="Arial" font-size="13px" font-style="normal" font-weight="normal" text-decoration="none" x="149" y="628.5">+getData(Value): bool</text></g></g><g transform="translate(-70,-222) scale(1,1)"><rect fill="#C0C0C0" stroke="none" x="223" y="423" width="95.3662109375" height="85" opacity="0.2"/></g><g transform="translate(-70,-222) scale(1,1)"><rect fill="#ffffff" stroke="none" x="216" y="416" width="95.3662109375" height="85"/></g><g transform="translate(-70,-222) scale(1,1)"><path fill="none" stroke="#000000" d="M 216 416 L 311.3662109375 416 L 311.3662109375 501 L 216 501 L 216 416 Z Z" stroke-miterlimit="10"/></g><g transform="translate(-70,-222) scale(1,1)"><path fill="none" stroke="#000000" d="M 216 441 L 311.3662109375 441" stroke-miterlimit="10"/></g><g transform="translate(-70,-222) scale(1,1)"><path fill="none" stroke="#000000" d="M 216 464 L 311.3662109375 464" stroke-miterlimit="10"/></g><g transform="translate(-70,-222) scale(1,1)"><g><path fill="none" stroke="none"/><text fill="#000000" stroke="none" font-family="Arial" font-size="13px" font-style="normal" font-weight="bold" text-decoration="none" x="242.009033203125" y="435.5">Monitor</text></g></g><g transform="translate(-70,-222) scale(1,1)"><g><path fill="none" stroke="none"/><text fill="#000000" stroke="none" font-family="Arial" font-size="13px" font-style="normal" font-weight="normal" text-decoration="none" x="221" y="458.5">-List Sensor&amp;</text></g></g><g transform="translate(-70,-222) scale(1,1)"><g><path fill="none" stroke="none"/><text fill="#000000" stroke="none" font-family="Arial" font-size="13px" font-style="normal" font-weight="normal" text-decoration="none" x="221" y="481.5">+interpret()</text></g></g><g transform="translate(-70,-222) scale(1,1)"><rect fill="#C0C0C0" stroke="none" x="631" y="607" width="100.03173828125" height="57" opacity="0.2"/></g><g transform="translate(-70,-222) scale(1,1)"><rect fill="#ffffff" stroke="none" x="624" y="600" width="100.03173828125" height="57"/></g><g transform="translate(-70,-222) scale(1,1)"><path fill="none" stroke="#000000" d="M 624 600 L 724.03173828125 600 L 724.03173828125 657 L 624 657 L 624 600 Z Z" stroke-miterlimit="10"/></g><g transform="translate(-70,-222) scale(1,1)"><path fill="none" stroke="#000000" d="M 624 625 L 724.03173828125 625" stroke-miterlimit="10"/></g><g transform="translate(-70,-222) scale(1,1)"><path fill="none" stroke="#000000" d="M 624 635 L 724.03173828125 635" stroke-miterlimit="10"/></g><g transform="translate(-70,-222) scale(1,1)"><g><path fill="none" stroke="none"/><text fill="#000000" stroke="none" font-family="Arial" font-size="13px" font-style="normal" font-weight="bold" text-decoration="none" x="631.023193359375" y="619.5">ReactiveModel</text></g></g><g transform="translate(-70,-222) scale(1,1)"><g><path fill="none" stroke="none"/><text fill="#000000" stroke="none" font-family="Arial" font-size="13px" font-style="normal" font-weight="normal" text-decoration="none" x="629" y="652.5">+run()</text></g></g><g transform="translate(-70,-222) scale(1,1)"><rect fill="#C0C0C0" stroke="none" x="231" y="743" width="88.84716796875" height="102" opacity="0.2"/></g><g transform="translate(-70,-222) scale(1,1)"><rect fill="#ffffff" stroke="none" x="224" y="736" width="88.84716796875" height="102"/></g><g transform="translate(-70,-222) scale(1,1)"><path fill="none" stroke="#000000" d="M 224 736 L 312.84716796875 736 L 312.84716796875 838 L 224 838 L 224 736 Z Z" stroke-miterlimit="10"/></g><g transform="translate(-70,-222) scale(1,1)"><path fill="none" stroke="#000000" d="M 224 761 L 312.84716796875 761" stroke-miterlimit="10"/></g><g transform="translate(-70,-222) scale(1,1)"><path fill="none" stroke="#000000" d="M 224 829 L 312.84716796875 829" stroke-miterlimit="10"/></g><g transform="translate(-70,-222) scale(1,1)"><g><path fill="none" stroke="none"/><text fill="#000000" stroke="none" font-family="Arial" font-size="13px" font-style="normal" font-weight="bold" text-decoration="none" x="233.375" y="755.5">RobotModel</text></g></g><g transform="translate(-70,-222) scale(1,1)"><g><path fill="none" stroke="none"/><text fill="#000000" stroke="none" font-family="Arial" font-size="13px" font-style="normal" font-weight="normal" text-decoration="none" x="229" y="778.5">-List Sensor</text></g></g><g transform="translate(-70,-222) scale(1,1)"><g><path fill="none" stroke="none"/><text fill="#000000" stroke="none" font-family="Arial" font-size="13px" font-style="normal" font-weight="normal" text-decoration="none" x="229" y="793.5">-List Actuator</text></g></g><g transform="translate(-70,-222) scale(1,1)"><g><path fill="none" stroke="none"/><text fill="#000000" stroke="none" font-family="Arial" font-size="13px" font-style="normal" font-weight="normal" text-decoration="none" x="229" y="808.5">-Position</text></g></g><g transform="translate(-70,-222) scale(1,1)"><g><path fill="none" stroke="none"/><text fill="#000000" stroke="none" font-family="Arial" font-size="13px" font-style="normal" font-weight="normal" text-decoration="none" x="229" y="823.5">-Orientation</text></g></g><g transform="translate(-70,-222) scale(1,1)"><rect fill="#C0C0C0" stroke="none" x="359" y="423" width="128.92626953125" height="57" opacity="0.2"/></g><g transform="translate(-70,-222) scale(1,1)"><rect fill="#ffffff" stroke="none" x="352" y="416" width="128.92626953125" height="57"/></g><g transform="translate(-70,-222) scale(1,1)"><path fill="none" stroke="#000000" d="M 352 416 L 480.92626953125 416 L 480.92626953125 473 L 352 473 L 352 416 Z Z" stroke-miterlimit="10"/></g><g transform="translate(-70,-222) scale(1,1)"><path fill="none" stroke="#000000" d="M 352 441 L 480.92626953125 441" stroke-miterlimit="10"/></g><g transform="translate(-70,-222) scale(1,1)"><path fill="none" stroke="#000000" d="M 352 451 L 480.92626953125 451" stroke-miterlimit="10"/></g><g transform="translate(-70,-222) scale(1,1)"><g><path fill="none" stroke="none"/><text fill="#000000" stroke="none" font-family="Arial" font-size="13px" font-style="normal" font-weight="bold" text-decoration="none" x="393.338623046875" y="435.5">Analyze</text></g></g><g transform="translate(-70,-222) scale(1,1)"><g><path fill="none" stroke="none"/><text fill="#000000" stroke="none" font-family="Arial" font-size="13px" font-style="normal" font-weight="normal" text-decoration="none" x="357" y="468.5">-mergeAndProcess()</text></g></g><g transform="translate(-70,-222) scale(1,1)"><rect fill="#C0C0C0" stroke="none" x="519" y="415" width="89.57080078125" height="70" opacity="0.2"/></g><g transform="translate(-70,-222) scale(1,1)"><rect fill="#ffffff" stroke="none" x="512" y="408" width="89.57080078125" height="70"/></g><g transform="translate(-70,-222) scale(1,1)"><path fill="none" stroke="#000000" d="M 512 408 L 601.57080078125 408 L 601.57080078125 478 L 512 478 L 512 408 Z Z" stroke-miterlimit="10"/></g><g transform="translate(-70,-222) scale(1,1)"><path fill="none" stroke="#000000" d="M 512 433 L 601.57080078125 433" stroke-miterlimit="10"/></g><g transform="translate(-70,-222) scale(1,1)"><path fill="none" stroke="#000000" d="M 512 456 L 601.57080078125 456" stroke-miterlimit="10"/></g><g transform="translate(-70,-222) scale(1,1)"><g><path fill="none" stroke="none"/><text fill="#000000" stroke="none" font-family="Arial" font-size="13px" font-style="normal" font-weight="bold" text-decoration="none" x="534.38134765625" y="427.5">Planner</text></g></g><g transform="translate(-70,-222) scale(1,1)"><g><path fill="none" stroke="none"/><text fill="#000000" stroke="none" font-family="Arial" font-size="13px" font-style="normal" font-weight="normal" text-decoration="none" x="517" y="450.5">-Pipeline&amp;</text></g></g><g transform="translate(-70,-222) scale(1,1)"><g><path fill="none" stroke="none"/><text fill="#000000" stroke="none" font-family="Arial" font-size="13px" font-style="normal" font-weight="normal" text-decoration="none" x="517" y="473.5">+run()</text></g></g><g transform="translate(-70,-222) scale(1,1)"><rect fill="#C0C0C0" stroke="none" x="655" y="415" width="89.57080078125" height="70" opacity="0.2"/></g><g transform="translate(-70,-222) scale(1,1)"><rect fill="#ffffff" stroke="none" x="648" y="408" width="89.57080078125" height="70"/></g><g transform="translate(-70,-222) scale(1,1)"><path fill="none" stroke="#000000" d="M 648 408 L 737.57080078125 408 L 737.57080078125 478 L 648 478 L 648 408 Z Z" stroke-miterlimit="10"/></g><g transform="translate(-70,-222) scale(1,1)"><path fill="none" stroke="#000000" d="M 648 433 L 737.57080078125 433" stroke-miterlimit="10"/></g><g transform="translate(-70,-222) scale(1,1)"><path fill="none" stroke="#000000" d="M 648 456 L 737.57080078125 456" stroke-miterlimit="10"/></g><g transform="translate(-70,-222) scale(1,1)"><g><path fill="none" stroke="none"/><text fill="#000000" stroke="none" font-family="Arial" font-size="13px" font-style="normal" font-weight="bold" text-decoration="none" x="669.299072265625" y="427.5">Execute</text></g></g><g transform="translate(-70,-222) scale(1,1)"><g><path fill="none" stroke="none"/><text fill="#000000" stroke="none" font-family="Arial" font-size="13px" font-style="normal" font-weight="normal" text-decoration="none" x="653" y="450.5">-Pipeline</text></g></g><g transform="translate(-70,-222) scale(1,1)"><g><path fill="none" stroke="none"/><text fill="#000000" stroke="none" font-family="Arial" font-size="13px" font-style="normal" font-weight="normal" text-decoration="none" x="653" y="473.5">+run()</text></g></g><g transform="translate(-70,-222) scale(1,1)"><rect fill="#C0C0C0" stroke="none" x="391" y="247" width="139.69189453125" height="72" opacity="0.2"/></g><g transform="translate(-70,-222) scale(1,1)"><rect fill="#ffffff" stroke="none" x="384" y="240" width="139.69189453125" height="72"/></g><g transform="translate(-70,-222) scale(1,1)"><path fill="none" stroke="#000000" d="M 384 240 L 523.69189453125 240 L 523.69189453125 312 L 384 312 L 384 240 Z Z" stroke-miterlimit="10"/></g><g transform="translate(-70,-222) scale(1,1)"><path fill="none" stroke="#000000" d="M 384 265 L 523.69189453125 265" stroke-miterlimit="10"/></g><g transform="translate(-70,-222) scale(1,1)"><path fill="none" stroke="#000000" d="M 384 275 L 523.69189453125 275" stroke-miterlimit="10"/></g><g transform="translate(-70,-222) scale(1,1)"><g><path fill="none" stroke="none"/><text fill="#000000" stroke="none" font-family="Arial" font-size="13px" font-style="normal" font-weight="bold" text-decoration="none" x="427.115966796875" y="259.5">Observer</text></g></g><g transform="translate(-70,-222) scale(1,1)"><g><path fill="none" stroke="none"/><text fill="#000000" stroke="none" font-family="Arial" font-size="13px" font-style="normal" font-weight="normal" text-decoration="none" x="389" y="292.5">+getValue(Value): bool</text></g></g><g transform="translate(-70,-222) scale(1,1)"><g><path fill="none" stroke="none"/><text fill="#000000" stroke="none" font-family="Arial" font-size="13px" font-style="normal" font-weight="normal" text-decoration="none" x="389" y="307.5">+update(Value)</text></g></g><g transform="translate(-70,-222) scale(1,1)"><rect fill="#C0C0C0" stroke="none" x="255" y="247" width="114.12353515625" height="85" opacity="0.2"/></g><g transform="translate(-70,-222) scale(1,1)"><rect fill="#ffffff" stroke="none" x="248" y="240" width="114.12353515625" height="85"/></g><g transform="translate(-70,-222) scale(1,1)"><path fill="none" stroke="#000000" d="M 248 240 L 362.12353515625 240 L 362.12353515625 325 L 248 325 L 248 240 Z Z" stroke-miterlimit="10"/></g><g transform="translate(-70,-222) scale(1,1)"><path fill="none" stroke="#000000" d="M 248 265 L 362.12353515625 265" stroke-miterlimit="10"/></g><g transform="translate(-70,-222) scale(1,1)"><path fill="none" stroke="#000000" d="M 248 288 L 362.12353515625 288" stroke-miterlimit="10"/></g><g transform="translate(-70,-222) scale(1,1)"><g><path fill="none" stroke="none"/><text fill="#000000" stroke="none" font-family="Arial" font-size="13px" font-style="normal" font-weight="bold" text-decoration="none" x="277.963623046875" y="259.5">Publisher</text></g></g><g transform="translate(-70,-222) scale(1,1)"><g><path fill="none" stroke="none"/><text fill="#000000" stroke="none" font-family="Arial" font-size="13px" font-style="normal" font-weight="normal" text-decoration="none" x="253" y="282.5">-List Observer</text></g></g><g transform="translate(-70,-222) scale(1,1)"><g><path fill="none" stroke="none"/><text fill="#000000" stroke="none" font-family="Arial" font-size="13px" font-style="normal" font-weight="normal" text-decoration="none" x="253" y="305.5">+attach(Observer)</text></g></g><g transform="translate(-70,-222) scale(1,1)"><g><path fill="none" stroke="none"/><text fill="#000000" stroke="none" font-family="Arial" font-size="13px" font-style="normal" font-weight="normal" text-decoration="none" x="253" y="320.5">+publish(Value)</text></g></g><g transform="translate(-70,-222) scale(1,1)"><path fill="none" stroke="#000000" d="M 295 416 L 295 325" stroke-miterlimit="10"/></g><g transform="translate(-70,-222) scale(1,1)"><path fill="#FFFFFF" stroke="none" d="M 303.419035512032 345.3253497152483 L 295 325 L 286.580964487968 345.3253497152483"/></g><g transform="translate(-70,-222) scale(1,1)"><path fill="none" stroke="#000000" d="M 303.419035512032 345.3253497152483 L 295 325 L 286.580964487968 345.3253497152483 L 303.419035512032 345.3253497152483" stroke-miterlimit="10"/></g><g transform="translate(-70,-222) scale(1,1)"><path fill="none" stroke="#000000" d="M 376 416 L 376 384 M 376 384 A 8 8 0 0 0 368 376 L 336 376 M 336 376 A 8 8 0 0 1 328 368 L 328 325" stroke-miterlimit="10"/></g><g transform="translate(-70,-222) scale(1,1)"><path fill="#FFFFFF" stroke="none" d="M 336.419035512032 345.3253497152483 L 328 325 L 319.580964487968 345.3253497152483"/></g><g transform="translate(-70,-222) scale(1,1)"><path fill="none" stroke="#000000" d="M 336.419035512032 345.3253497152483 L 328 325 L 319.580964487968 345.3253497152483 L 336.419035512032 345.3253497152483" stroke-miterlimit="10"/></g><g transform="translate(-70,-222) scale(1,1)"><path fill="none" stroke="#000000" d="M 416 416 L 416 312" stroke-miterlimit="10"/></g><g transform="translate(-70,-222) scale(1,1)"><path fill="#FFFFFF" stroke="none" d="M 424.419035512032 332.3253497152483 L 416 312 L 407.580964487968 332.3253497152483"/></g><g transform="translate(-70,-222) scale(1,1)"><path fill="none" stroke="#000000" d="M 424.419035512032 332.3253497152483 L 416 312 L 407.580964487968 332.3253497152483 L 424.419035512032 332.3253497152483" stroke-miterlimit="10"/></g><g transform="translate(-70,-222) scale(1,1)"><path fill="none" stroke="#000000" d="M 556 408 L 556 368 M 556 368 A 8 8 0 0 0 548 360 L 461 360 M 461 360 A 8 8 0 0 1 453 352 L 453 312" stroke-miterlimit="10"/></g><g transform="translate(-70,-222) scale(1,1)"><path fill="#FFFFFF" stroke="none" d="M 461.419035512032 332.3253497152483 L 453 312 L 444.580964487968 332.3253497152483"/></g><g transform="translate(-70,-222) scale(1,1)"><path fill="none" stroke="#000000" d="M 461.419035512032 332.3253497152483 L 453 312 L 444.580964487968 332.3253497152483 L 461.419035512032 332.3253497152483" stroke-miterlimit="10"/></g><g transform="translate(-70,-222) scale(1,1)"><rect fill="#C0C0C0" stroke="none" x="551" y="239" width="93.17626953125" height="85" opacity="0.2"/></g><g transform="translate(-70,-222) scale(1,1)"><rect fill="#ffffff" stroke="none" x="544" y="232" width="93.17626953125" height="85"/></g><g transform="translate(-70,-222) scale(1,1)"><path fill="none" stroke="#000000" d="M 544 232 L 637.17626953125 232 L 637.17626953125 317 L 544 317 L 544 232 Z Z" stroke-miterlimit="10"/></g><g transform="translate(-70,-222) scale(1,1)"><path fill="none" stroke="#000000" d="M 544 257 L 637.17626953125 257" stroke-miterlimit="10"/></g><g transform="translate(-70,-222) scale(1,1)"><path fill="none" stroke="#000000" d="M 544 280 L 637.17626953125 280" stroke-miterlimit="10"/></g><g transform="translate(-70,-222) scale(1,1)"><g><path fill="none" stroke="none"/><text fill="#000000" stroke="none" font-family="Arial" font-size="13px" font-style="normal" font-weight="bold" text-decoration="none" x="567.46044921875" y="251.5">Pipeline</text></g></g><g transform="translate(-70,-222) scale(1,1)"><g><path fill="none" stroke="none"/><text fill="#000000" stroke="none" font-family="Arial" font-size="13px" font-style="normal" font-weight="normal" text-decoration="none" x="549" y="274.5">-List Action&amp;</text></g></g><g transform="translate(-70,-222) scale(1,1)"><g><path fill="none" stroke="none"/><text fill="#000000" stroke="none" font-family="Arial" font-size="13px" font-style="normal" font-weight="normal" text-decoration="none" x="549" y="297.5">+push(Action)</text></g></g><g transform="translate(-70,-222) scale(1,1)"><g><path fill="none" stroke="none"/><text fill="#000000" stroke="none" font-family="Arial" font-size="13px" font-style="normal" font-weight="normal" text-decoration="none" x="549" y="312.5">+next(): Action</text></g></g><g transform="translate(-70,-222) scale(1,1)"><path fill="none" stroke="#000000" d="M 692 408 L 692 360 M 692 360 A 8 8 0 0 0 684 352 L 598 352 M 598 352 A 8 8 0 0 1 590 344 L 590 317" stroke-miterlimit="10"/></g><g transform="translate(-70,-222) scale(1,1)"><path fill="#000000" stroke="none" d="M 594.209517756016 327.16267485762415 L 590 317 L 585.790482243984 327.16267485762415 L 590 339"/></g><g transform="translate(-70,-222) scale(1,1)"><path fill="none" stroke="#000000" d="M 594.209517756016 327.16267485762415 L 590 317 L 585.790482243984 327.16267485762415 L 590 339 L 594.209517756016 327.16267485762415" stroke-miterlimit="10"/></g><g transform="translate(-70,-222) scale(1,1)"><rect fill="#C0C0C0" stroke="none" x="327" y="607" width="62.447265625" height="44" opacity="0.2"/></g><g transform="translate(-70,-222) scale(1,1)"><rect fill="#ffffff" stroke="none" x="320" y="600" width="62.447265625" height="44"/></g><g transform="translate(-70,-222) scale(1,1)"><path fill="none" stroke="#000000" d="M 320 600 L 382.447265625 600 L 382.447265625 644 L 320 644 L 320 600 Z Z" stroke-miterlimit="10"/></g><g transform="translate(-70,-222) scale(1,1)"><path fill="none" stroke="#000000" d="M 320 625 L 382.447265625 625" stroke-miterlimit="10"/></g><g transform="translate(-70,-222) scale(1,1)"><path fill="none" stroke="#000000" d="M 320 635 L 382.447265625 635" stroke-miterlimit="10"/></g><g transform="translate(-70,-222) scale(1,1)"><g><path fill="none" stroke="none"/><text fill="#000000" stroke="none" font-family="Arial" font-size="13px" font-style="normal" font-weight="bold" text-decoration="none" x="327.016845703125" y="619.5">Actuator</text></g></g><g transform="translate(-70,-222) scale(1,1)"><path fill="none" stroke="#000000" d="M 248 736 L 248 696 M 248 696 A 8 8 0 0 0 240 688 L 219 688 M 219 688 A 8 8 0 0 1 211 680 L 211 646" stroke-miterlimit="10"/></g><g transform="translate(-70,-222) scale(1,1)"><path fill="#000000" stroke="none" d="M 215.209517756016 656.1626748576241 L 211 646 L 206.790482243984 656.1626748576241 L 211 668"/></g><g transform="translate(-70,-222) scale(1,1)"><path fill="none" stroke="#000000" d="M 215.209517756016 656.1626748576241 L 211 646 L 206.790482243984 656.1626748576241 L 211 668 L 215.209517756016 656.1626748576241" stroke-miterlimit="10"/></g><g transform="translate(-70,-222) scale(1,1)"><path fill="none" stroke="#000000" d="M 288 736 L 288 688 M 288 688 A 8 8 0 0 1 296 680 L 336 680 M 336 680 A 8 8 0 0 0 344 672 L 344 644" stroke-miterlimit="10"/></g><g transform="translate(-70,-222) scale(1,1)"><path fill="#000000" stroke="none" d="M 348.209517756016 654.1626748576241 L 344 644 L 339.790482243984 654.1626748576241 L 344 666"/></g><g transform="translate(-70,-222) scale(1,1)"><path fill="none" stroke="#000000" d="M 348.209517756016 654.1626748576241 L 344 644 L 339.790482243984 654.1626748576241 L 344 666 L 348.209517756016 654.1626748576241" stroke-miterlimit="10"/></g><g transform="translate(-70,-222) scale(1,1)"><rect fill="#C0C0C0" stroke="none" x="383" y="751" width="89.57080078125" height="57" opacity="0.2"/></g><g transform="translate(-70,-222) scale(1,1)"><rect fill="#ffffff" stroke="none" x="376" y="744" width="89.57080078125" height="57"/></g><g transform="translate(-70,-222) scale(1,1)"><path fill="none" stroke="#000000" d="M 376 744 L 465.57080078125 744 L 465.57080078125 801 L 376 801 L 376 744 Z Z" stroke-miterlimit="10"/></g><g transform="translate(-70,-222) scale(1,1)"><path fill="none" stroke="#000000" d="M 376 769 L 465.57080078125 769" stroke-miterlimit="10"/></g><g transform="translate(-70,-222) scale(1,1)"><path fill="none" stroke="#000000" d="M 376 779 L 465.57080078125 779" stroke-miterlimit="10"/></g><g transform="translate(-70,-222) scale(1,1)"><g><path fill="none" stroke="none"/><text fill="#000000" stroke="none" font-family="Arial" font-size="13px" font-style="normal" font-weight="bold" text-decoration="none" x="402.361328125" y="763.5">Wheel</text></g></g><g transform="translate(-70,-222) scale(1,1)"><g><path fill="none" stroke="none"/><text fill="#000000" stroke="none" font-family="Arial" font-size="13px" font-style="normal" font-weight="normal" text-decoration="none" x="381" y="796.5">+setSpeed()</text></g></g><g transform="translate(-70,-222) scale(1,1)"><path fill="none" stroke="#000000" d="M 401 744 L 401 704 M 401 704 A 8 8 0 0 0 393 696 L 368 696 M 368 696 A 8 8 0 0 1 360 688 L 360 644" stroke-miterlimit="10"/></g><g transform="translate(-70,-222) scale(1,1)"><path fill="#FFFFFF" stroke="none" d="M 368.419035512032 664.3253497152483 L 360 644 L 351.580964487968 664.3253497152483"/></g><g transform="translate(-70,-222) scale(1,1)"><path fill="none" stroke="#000000" d="M 368.419035512032 664.3253497152483 L 360 644 L 351.580964487968 664.3253497152483 L 368.419035512032 664.3253497152483" stroke-miterlimit="10"/></g><g transform="translate(-70,-222) scale(1,1)"><rect fill="#C0C0C0" stroke="none" x="87" y="735" width="50.919921875" height="44" opacity="0.2"/></g><g transform="translate(-70,-222) scale(1,1)"><rect fill="#ffffff" stroke="none" x="80" y="728" width="50.919921875" height="44"/></g><g transform="translate(-70,-222) scale(1,1)"><path fill="none" stroke="#000000" d="M 80 728 L 130.919921875 728 L 130.919921875 772 L 80 772 L 80 728 Z Z" stroke-miterlimit="10"/></g><g transform="translate(-70,-222) scale(1,1)"><path fill="none" stroke="#000000" d="M 80 753 L 130.919921875 753" stroke-miterlimit="10"/></g><g transform="translate(-70,-222) scale(1,1)"><path fill="none" stroke="#000000" d="M 80 763 L 130.919921875 763" stroke-miterlimit="10"/></g><g transform="translate(-70,-222) scale(1,1)"><g><path fill="none" stroke="none"/><text fill="#000000" stroke="none" font-family="Arial" font-size="13px" font-style="normal" font-weight="bold" text-decoration="none" x="86.305908203125" y="747.5">Range</text></g></g><g transform="translate(-70,-222) scale(1,1)"><path fill="none" stroke="#000000" d="M 112 728 L 112 704 M 112 704 A 8 8 0 0 1 120 696 L 160 696 M 160 696 A 8 8 0 0 0 168 688 L 168 646" stroke-miterlimit="10"/></g><g transform="translate(-70,-222) scale(1,1)"><path fill="#FFFFFF" stroke="none" d="M 176.41903551203197 666.3253497152483 L 168 646 L 159.58096448796803 666.3253497152483"/></g><g transform="translate(-70,-222) scale(1,1)"><path fill="none" stroke="#000000" d="M 176.41903551203197 666.3253497152483 L 168 646 L 159.58096448796803 666.3253497152483 L 176.41903551203197 666.3253497152483" stroke-miterlimit="10"/></g><g transform="translate(-70,-222) scale(1,1)"><rect fill="#C0C0C0" stroke="none" x="87" y="847" width="50.919921875" height="44" opacity="0.2"/></g><g transform="translate(-70,-222) scale(1,1)"><rect fill="#ffffff" stroke="none" x="80" y="840" width="50.919921875" height="44"/></g><g transform="translate(-70,-222) scale(1,1)"><path fill="none" stroke="#000000" d="M 80 840 L 130.919921875 840 L 130.919921875 884 L 80 884 L 80 840 Z Z" stroke-miterlimit="10"/></g><g transform="translate(-70,-222) scale(1,1)"><path fill="none" stroke="#000000" d="M 80 865 L 130.919921875 865" stroke-miterlimit="10"/></g><g transform="translate(-70,-222) scale(1,1)"><path fill="none" stroke="#000000" d="M 80 875 L 130.919921875 875" stroke-miterlimit="10"/></g><g transform="translate(-70,-222) scale(1,1)"><g><path fill="none" stroke="none"/><text fill="#000000" stroke="none" font-family="Arial" font-size="13px" font-style="normal" font-weight="bold" text-decoration="none" x="88.114990234375" y="859.5">Sonar</text></g></g><g transform="translate(-70,-222) scale(1,1)"><path fill="none" stroke="#000000" d="M 105 839 L 105 773" stroke-miterlimit="10"/></g><g transform="translate(-70,-222) scale(1,1)"><path fill="#FFFFFF" stroke="none" d="M 113.41903551203198 793.3253497152483 L 105 773 L 96.58096448796803 793.3253497152483"/></g><g transform="translate(-70,-222) scale(1,1)"><path fill="none" stroke="#000000" d="M 113.41903551203198 793.3253497152483 L 105 773 L 96.58096448796803 793.3253497152483 L 113.41903551203198 793.3253497152483" stroke-miterlimit="10"/></g><g transform="translate(-70,-222) scale(1,1)"><rect fill="#C0C0C0" stroke="none" x="759" y="255" width="89.57080078125" height="57" opacity="0.2"/></g><g transform="translate(-70,-222) scale(1,1)"><rect fill="#ffffff" stroke="none" x="752" y="248" width="89.57080078125" height="57"/></g><g transform="translate(-70,-222) scale(1,1)"><path fill="none" stroke="#000000" d="M 752 248 L 841.57080078125 248 L 841.57080078125 305 L 752 305 L 752 248 Z Z" stroke-miterlimit="10"/></g><g transform="translate(-70,-222) scale(1,1)"><path fill="none" stroke="#000000" d="M 752 273 L 841.57080078125 273" stroke-miterlimit="10"/></g><g transform="translate(-70,-222) scale(1,1)"><path fill="none" stroke="#000000" d="M 752 283 L 841.57080078125 283" stroke-miterlimit="10"/></g><g transform="translate(-70,-222) scale(1,1)"><g><path fill="none" stroke="none"/><text fill="#000000" stroke="none" font-family="Arial" font-size="13px" font-style="normal" font-weight="bold" text-decoration="none" x="778.719970703125" y="267.5">Action</text></g></g><g transform="translate(-70,-222) scale(1,1)"><g><path fill="none" stroke="none"/><text fill="#000000" stroke="none" font-family="Arial" font-size="13px" font-style="normal" font-weight="normal" text-decoration="none" x="757" y="300.5">+run()</text></g></g></g></svg>