<svg version="1.1" xmlns="http://www.w3.org/2000/svg" xmlns:xlink="http://www.w3.org/1999/xlink" width="677.57080078125" height="524"><defs/><g><text fill="#eeeeee" stroke="none" font-family="Arial" font-size="24px" font-style="normal" font-weight="normal" text-decoration="none" x="0" y="0">UNREGISTERED</text><text fill="#eeeeee" stroke="none" font-family="Arial" font-size="24px" font-style="normal" font-weight="normal" text-decoration="none" x="0" y="30">UNREGISTERED</text><text fill="#eeeeee" stroke="none" font-family="Arial" font-size="24px" font-style="normal" font-weight="normal" text-decoration="none" x="0" y="60">UNREGISTERED</text><text fill="#eeeeee" stroke="none" font-family="Arial" font-size="24px" font-style="normal" font-weight="normal" text-decoration="none" x="0" y="90">UNREGISTERED</text><text fill="#eeeeee" stroke="none" font-family="Arial" font-size="24px" font-style="normal" font-weight="normal" text-decoration="none" x="0" y="120">UNREGISTERED</text><text fill="#eeeeee" stroke="none" font-family="Arial" font-size="24px" font-style="normal" font-weight="normal" text-decoration="none" x="0" y="150">UNREGISTERED</text><text fill="#eeeeee" stroke="none" font-family="Arial" font-size="24px" font-style="normal" font-weight="normal" text-decoration="none" x="0" y="180">UNREGISTERED</text><text fill="#eeeeee" stroke="none" font-family="Arial" font-size="24px" font-style="normal" font-weight="normal" text-decoration="none" x="0" y="210">UNREGISTERED</text><text fill="#eeeeee" stroke="none" font-family="Arial" font-size="24px" font-style="normal" font-weight="normal" text-decoration="none" x="0" y="240">UNREGISTERED</text><text fill="#eeeeee" stroke="none" font-family="Arial" font-size="24px" font-style="normal" font-weight="normal" text-decoration="none" x="0" y="270">UNREGISTERED</text><text fill="#eeeeee" stroke="none" font-family="Arial" font-size="24px" font-style="normal" font-weight="normal" text-decoration="none" x="0" y="300">UNREGISTERED</text><text fill="#eeeeee" stroke="none" font-family="Arial" font-size="24px" font-style="normal" font-weight="normal" text-decoration="none" x="0" y="330">UNREGISTERED</text><text fill="#eeeeee" stroke="none" font-family="Arial" font-size="24px" font-style="normal" font-weight="normal" text-decoration="none" x="0" y="360">UNREGISTERED</text><text fill="#eeeeee" stroke="none" font-family="Arial" font-size="24px" font-style="normal" font-weight="normal" text-decoration="none" x="0" y="390">UNREGISTERED</text><text fill="#eeeeee" stroke="none" font-family="Arial" font-size="24px" font-style="normal" font-weight="normal" text-decoration="none" x="0" y="420">UNREGISTERED</text><text fill="#eeeeee" stroke="none" font-family="Arial" font-size="24px" font-style="normal" font-weight="normal" text-decoration="none" x="0" y="450">UNREGISTERED</text><text fill="#eeeeee" stroke="none" font-family="Arial" font-size="24px" font-style="normal" font-weight="normal" text-decoration="none" x="0" y="480">UNREGISTERED</text><text fill="#eeeeee" stroke="none" font-family="Arial" font-size="24px" font-style="normal" font-weight="normal" text-decoration="none" x="0" y="510">UNREGISTERED</text><text fill="#eeeeee" stroke="none" font-family="Arial" font-size="24px" font-style="normal" font-weight="normal" text-decoration="none" x="200" y="0">UNREGISTERED</text><text fill="#eeeeee" stroke="none" font-family="Arial" font-size="24px" font-style="normal" font-weight="normal" text-decoration="none" x="200" y="30">UNREGISTERED</text><text fill="#eeeeee" stroke="none" font-family="Arial" font-size="24px" font-style="normal" font-weight="normal" text-decoration="none" x="200" y="60">UNREGISTERED</text><text fill="#eeeeee" stroke="none" font-family="Arial" font-size="24px" font-style="normal" font-weight="normal" text-decoration="none" x="200" y="90">UNREGISTERED</text><text fill="#eeeeee" stroke="none" font-family="Arial" font-size="24px" font-style="normal" font-weight="normal" text-decoration="none" x="200" y="120">UNREGISTERED</text><text fill="#eeeeee" stroke="none" font-family="Arial" font-size="24px" font-style="normal" font-weight="normal" text-decoration="none" x="200" y="150">UNREGISTERED</text><text fill="#eeeeee" stroke="none" font-family="Arial" font-size="24px" font-style="normal" font-weight="normal" text-decoration="none" x="200" y="180">UNREGISTERED</text><text fill="#eeeeee" stroke="none" font-family="Arial" font-size="24px" font-style="normal" font-weight="normal" text-decoration="none" x="200" y="210">UNREGISTERED</text><text fill="#eeeeee" stroke="none" font-family="Arial" font-size="24px" font-style="normal" font-weight="normal" text-decoration="none" x="200" y="240">UNREGISTERED</text><text fill="#eeeeee" stroke="none" font-family="Arial" font-size="24px" font-style="normal" font-weight="normal" text-decoration="none" x="200" y="270">UNREGISTERED</text><text fill="#eeeeee" stroke="none" font-family="Arial" font-size="24px" font-style="normal" font-weight="normal" text-decoration="none" x="200" y="300">UNREGISTERED</text><text fill="#eeeeee" stroke="none" font-family="Arial" font-size="24px" font-style="normal" font-weight="normal" text-decoration="none" x="200" y="330">UNREGISTERED</text><text fill="#eeeeee" stroke="none" font-family="Arial" font-size="24px" font-style="normal" font-weight="normal" text-decoration="none" x="200" y="360">UNREGISTERED</text><text fill="#eeeeee" stroke="none" font-family="Arial" font-size="24px" font-style="normal" font-weight="normal" text-decoration="none" x="200" y="390">UNREGISTERED</text><text fill="#eeeeee" stroke="none" font-family="Arial" font-size="24px" font-style="normal" font-weight="normal" text-decoration="none" x="200" y="420">UNREGISTERED</text><text fill="#eeeeee" stroke="none" font-family="Arial" font-size="24px" font-style="normal" font-weight="normal" text-decoration="none" x="200" y="450">UNREGISTERED</text><text fill="#eeeeee" stroke="none" font-family="Arial" font-size="24px" font-style="normal" font-weight="normal" text-decoration="none" x="200" y="480">UNREGISTERED</text><text fill="#eeeeee" stroke="none" font-family="Arial" font-size="24px" font-style="normal" font-weight="normal" text-decoration="none" x="200" y="510">UNREGISTERED</text><text fill="#eeeeee" stroke="none" font-family="Arial" font-size="24px" font-style="normal" font-weight="normal" text-decoration="none" x="400" y="0">UNREGISTERED</text><text fill="#eeeeee" stroke="none" font-family="Arial" font-size="24px" font-style="normal" font-weight="normal" text-decoration="none" x="400" y="30">UNREGISTERED</text><text fill="#eeeeee" stroke="none" font-family="Arial" font-size="24px" font-style="normal" font-weight="normal" text-decoration="none" x="400" y="60">UNREGISTERED</text><text fill="#eeeeee" stroke="none" font-family="Arial" font-size="24px" font-style="normal" font-weight="normal" text-decoration="none" x="400" y="90">UNREGISTERED</text><text fill="#eeeeee" stroke="none" font-family="Arial" font-size="24px" font-style="normal" font-weight="normal" text-decoration="none" x="400" y="120">UNREGISTERED</text><text fill="#eeeeee" stroke="none" font-family="Arial" font-size="24px" font-style="normal" font-weight="normal" text-decoration="none" x="400" y="150">UNREGISTERED</text><text fill="#eeeeee" stroke="none" font-family="Arial" font-size="24px" font-style="normal" font-weight="normal" text-decoration="none" x="400" y="180">UNREGISTERED</text><text fill="#eeeeee" stroke="none" font-family="Arial" font-size="24px" font-style="normal" font-weight="normal" text-decoration="none" x="400" y="210">UNREGISTERED</text><text fill="#eeeeee" stroke="none" font-family="Arial" font-size="24px" font-style="normal" font-weight="normal" text-decoration="none" x="400" y="240">UNREGISTERED</text><text fill="#eeeeee" stroke="none" font-family="Arial" font-size="24px" font-style="normal" font-weight="normal" text-decoration="none" x="400" y="270">UNREGISTERED</text><text fill="#eeeeee" stroke="none" font-family="Arial" font-size="24px" font-style="normal" font-weight="normal" text-decoration="none" x="400" y="300">UNREGISTERED</text><text fill="#eeeeee" stroke="none" font-family="Arial" font-size="24px" font-style="normal" font-weight="normal" text-decoration="none" x="400" y="330">UNREGISTERED</text><text fill="#eeeeee" stroke="none" font-family="Arial" font-size="24px" font-style="normal" font-weight="normal" text-decoration="none" x="400" y="360">UNREGISTERED</text><text fill="#eeeeee" stroke="none" font-family="Arial" font-size="24px" font-style="normal" font-weight="normal" text-decoration="none" x="400" y="390">UNREGISTERED</text><text fill="#eeeeee" stroke="none" font-family="Arial" font-size="24px" font-style="normal" font-weight="normal" text-decoration="none" x="400" y="420">UNREGISTERED</text><text fill="#eeeeee" stroke="none" font-family="Arial" font-size="24px" font-style="normal" font-weight="normal" text-decoration="none" x="400" y="450">UNREGISTERED</text><text fill="#eeeeee" stroke="none" font-family="Arial" font-size="24px" font-style="normal" font-weight="normal" text-decoration="none" x="400" y="480">UNREGISTERED</text><text fill="#eeeeee" stroke="none" font-family="Arial" font-size="24px" font-style="normal" font-weight="normal" text-decoration="none" x="400" y="510">UNREGISTERED</text><text fill="#eeeeee" stroke="none" font-family="Arial" font-size="24px" font-style="normal" font-weight="normal" text-decoration="none" x="600" y="0">UNREGISTERED</text><text fill="#eeeeee" stroke="none" font-family="Arial" font-size="24px" font-style="normal" font-weight="normal" text-decoration="none" x="600" y="30">UNREGISTERED</text><text fill="#eeeeee" stroke="none" font-family="Arial" font-size="24px" font-style="normal" font-weight="normal" text-decoration="none" x="600" y="60">UNREGISTERED</text><text fill="#eeeeee" stroke="none" font-family="Arial" font-size="24px" font-style="normal" font-weight="normal" text-decoration="none" x="600" y="90">UNREGISTERED</text><text fill="#eeeeee" stroke="none" font-family="Arial" font-size="24px" font-style="normal" font-weight="normal" text-decoration="none" x="600" y="120">UNREGISTERED</text><text fill="#eeeeee" stroke="none" font-family="Arial" font-size="24px" font-style="normal" font-weight="normal" text-decoration="none" x="600" y="150">UNREGISTERED</text><text fill="#eeeeee" stroke="none" font-family="Arial" font-size="24px" font-style="normal" font-weight="normal" text-decoration="none" x="600" y="180">UNREGISTERED</text><text fill="#eeeeee" stroke="none" font-family="Arial" font-size="24px" font-style="normal" font-weight="normal" text-decoration="none" x="600" y="210">UNREGISTERED</text><text fill="#eeeeee" stroke="none" font-family="Arial" font-size="24px" font-style="normal" font-weight="normal" text-decoration="none" x="600" y="240">UNREGISTERED</text><text fill="#eeeeee" stroke="none" font-family="Arial" font-size="24px" font-style="normal" font-weight="normal" text-decoration="none" x="600" y="270">UNREGISTERED</text><text fill="#eeeeee" stroke="none" font-family="Arial" font-size="24px" font-style="normal" font-weight="normal" text-decoration="none" x="600" y="300">UNREGISTERED</text><text fill="#eeeeee" stroke="none" font-family="Arial" font-size="24px" font-style="normal" font-weight="normal" text-decoration="none" x="600" y="330">UNREGISTERED</text><text fill="#eeeeee" stroke="none" font-family="Arial" font-size="24px" font-style="normal" font-weight="normal" text-decoration="none" x="600" y="360">UNREGISTERED</text><text fill="#eeeeee" stroke="none" font-family="Arial" font-size="24px" font-style="normal" font-weight="normal" text-decoration="none" x="600" y="390">UNREGISTERED</text><text fill="#eeeeee" stroke="none" font-family="Arial" font-size="24px" font-style="normal" font-weight="normal" text-decoration="none" x="600" y="420">UNREGISTERED</text><text fill="#eeeeee" stroke="none" font-family="Arial" font-size="24px" font-style="normal" font-weight="normal" text-decoration="none" x="600" y="450">UNREGISTERED</text><text fill="#eeeeee" stroke="none" font-family="Arial" font-size="24px" font-style="normal" font-weight="normal" text-decoration="none" x="600" y="480">UNREGISTERED</text><text fill="#eeeeee" stroke="none" font-family="Arial" font-size="24px" font-style="normal" font-weight="normal" text-decoration="none" x="600" y="510">UNREGISTERED</text><g transform="translate(-166,-230) scale(1,1)"><rect fill="#C0C0C0" stroke="none" x="231" y="567" width="135.35009765625" height="70" opacity="0.2"/></g><g transform="translate(-166,-230) scale(1,1)"><rect fill="#ffffff" stroke="none" x="224" y="560" width="135.35009765625" height="70"/></g><g transform="translate(-166,-230) scale(1,1)"><path fill="none" stroke="#000000" d="M 224 560 L 359.35009765625 560 L 359.35009765625 630 L 224 630 L 224 560 Z Z" stroke-miterlimit="10"/></g><g transform="translate(-166,-230) scale(1,1)"><path fill="none" stroke="#000000" d="M 224 585 L 359.35009765625 585" stroke-miterlimit="10"/></g><g transform="translate(-166,-230) scale(1,1)"><path fill="none" stroke="#000000" d="M 224 595 L 359.35009765625 595" stroke-miterlimit="10"/></g><g transform="translate(-166,-230) scale(1,1)"><g><path fill="none" stroke="none"/><text fill="#000000" stroke="none" font-family="Arial" font-size="13px" font-style="italic" font-weight="bold" text-decoration="none" x="271.080078125" y="579.5">Sensor</text></g></g><g transform="translate(-166,-230) scale(1,1)"><g><path fill="none" stroke="none"/><text fill="#000000" stroke="none" font-family="Arial" font-size="13px" font-style="italic" font-weight="normal" text-decoration="none" x="229" y="612.5">+getData(Value): bool</text></g></g><g transform="translate(-166,-230) scale(1,1)"><rect fill="#C0C0C0" stroke="none" x="183" y="407" width="110.5244140625" height="85" opacity="0.2"/></g><g transform="translate(-166,-230) scale(1,1)"><rect fill="#ffa182" stroke="none" x="176" y="400" width="110.5244140625" height="85"/></g><g transform="translate(-166,-230) scale(1,1)"><path fill="none" stroke="#000000" d="M 176 400 L 286.5244140625 400 L 286.5244140625 485 L 176 485 L 176 400 Z Z" stroke-miterlimit="10"/></g><g transform="translate(-166,-230) scale(1,1)"><path fill="none" stroke="#000000" d="M 176 425 L 286.5244140625 425" stroke-miterlimit="10"/></g><g transform="translate(-166,-230) scale(1,1)"><path fill="none" stroke="#000000" d="M 176 435 L 286.5244140625 435" stroke-miterlimit="10"/></g><g transform="translate(-166,-230) scale(1,1)"><g><path fill="none" stroke="none"/><text fill="#000000" stroke="none" font-family="Arial" font-size="13px" font-style="italic" font-weight="bold" text-decoration="none" x="209.588134765625" y="419.5">Monitor</text></g></g><g transform="translate(-166,-230) scale(1,1)"><g><path fill="none" stroke="none"/><text fill="#000000" stroke="none" font-family="Arial" font-size="13px" font-style="italic" font-weight="normal" text-decoration="none" x="181" y="452.5">+interpret()</text></g></g><g transform="translate(-166,-230) scale(1,1)"><g><path fill="none" stroke="none"/><text fill="#000000" stroke="none" font-family="Arial" font-size="13px" font-style="normal" font-weight="normal" text-decoration="none" x="181" y="467.5">+attatch(Analyze)</text></g></g><g transform="translate(-166,-230) scale(1,1)"><rect fill="#C0C0C0" stroke="none" x="727" y="559" width="100.03173828125" height="57" opacity="0.2"/></g><g transform="translate(-166,-230) scale(1,1)"><rect fill="#ffffff" stroke="none" x="720" y="552" width="100.03173828125" height="57"/></g><g transform="translate(-166,-230) scale(1,1)"><path fill="none" stroke="#000000" d="M 720 552 L 820.03173828125 552 L 820.03173828125 609 L 720 609 L 720 552 Z Z" stroke-miterlimit="10"/></g><g transform="translate(-166,-230) scale(1,1)"><path fill="none" stroke="#000000" d="M 720 577 L 820.03173828125 577" stroke-miterlimit="10"/></g><g transform="translate(-166,-230) scale(1,1)"><path fill="none" stroke="#000000" d="M 720 587 L 820.03173828125 587" stroke-miterlimit="10"/></g><g transform="translate(-166,-230) scale(1,1)"><g><path fill="none" stroke="none"/><text fill="#000000" stroke="none" font-family="Arial" font-size="13px" font-style="normal" font-weight="bold" text-decoration="none" x="727.023193359375" y="571.5">ReactiveModel</text></g></g><g transform="translate(-166,-230) scale(1,1)"><g><path fill="none" stroke="none"/><text fill="#000000" stroke="none" font-family="Arial" font-size="13px" font-style="italic" font-weight="normal" text-decoration="none" x="725" y="604.5">+run()</text></g></g><g transform="translate(-166,-230) scale(1,1)"><rect fill="#C0C0C0" stroke="none" x="439" y="679" width="88.84716796875" height="72" opacity="0.2"/></g><g transform="translate(-166,-230) scale(1,1)"><rect fill="#ffffff" stroke="none" x="432" y="672" width="88.84716796875" height="72"/></g><g transform="translate(-166,-230) scale(1,1)"><path fill="none" stroke="#000000" d="M 432 672 L 520.84716796875 672 L 520.84716796875 744 L 432 744 L 432 672 Z Z" stroke-miterlimit="10"/></g><g transform="translate(-166,-230) scale(1,1)"><path fill="none" stroke="#000000" d="M 432 697 L 520.84716796875 697" stroke-miterlimit="10"/></g><g transform="translate(-166,-230) scale(1,1)"><path fill="none" stroke="#000000" d="M 432 735 L 520.84716796875 735" stroke-miterlimit="10"/></g><g transform="translate(-166,-230) scale(1,1)"><g><path fill="none" stroke="none"/><text fill="#000000" stroke="none" font-family="Arial" font-size="13px" font-style="normal" font-weight="bold" text-decoration="none" x="441.375" y="691.5">RobotModel</text></g></g><g transform="translate(-166,-230) scale(1,1)"><g><path fill="none" stroke="none"/><text fill="#000000" stroke="none" font-family="Arial" font-size="13px" font-style="normal" font-weight="normal" text-decoration="none" x="437" y="714.5">-Position</text></g></g><g transform="translate(-166,-230) scale(1,1)"><g><path fill="none" stroke="none"/><text fill="#000000" stroke="none" font-family="Arial" font-size="13px" font-style="normal" font-weight="normal" text-decoration="none" x="437" y="729.5">-Orientation</text></g></g><g transform="translate(-166,-230) scale(1,1)"><rect fill="#C0C0C0" stroke="none" x="321" y="407" width="132.18896484375" height="72" opacity="0.2"/></g><g transform="translate(-166,-230) scale(1,1)"><rect fill="#ffff91" stroke="none" x="314" y="400" width="132.18896484375" height="72"/></g><g transform="translate(-166,-230) scale(1,1)"><path fill="none" stroke="#000000" d="M 314 400 L 446.18896484375 400 L 446.18896484375 472 L 314 472 L 314 400 Z Z" stroke-miterlimit="10"/></g><g transform="translate(-166,-230) scale(1,1)"><path fill="none" stroke="#000000" d="M 314 425 L 446.18896484375 425" stroke-miterlimit="10"/></g><g transform="translate(-166,-230) scale(1,1)"><path fill="none" stroke="#000000" d="M 314 435 L 446.18896484375 435" stroke-miterlimit="10"/></g><g transform="translate(-166,-230) scale(1,1)"><g><path fill="none" stroke="none"/><text fill="#000000" stroke="none" font-family="Arial" font-size="13px" font-style="italic" font-weight="bold" text-decoration="none" x="356.969970703125" y="419.5">Analyze</text></g></g><g transform="translate(-166,-230) scale(1,1)"><g><path fill="none" stroke="none"/><text fill="#000000" stroke="none" font-family="Arial" font-size="13px" font-style="italic" font-weight="normal" text-decoration="none" x="319" y="452.5">+process()</text></g></g><g transform="translate(-166,-230) scale(1,1)"><g><path fill="none" stroke="none"/><text fill="#000000" stroke="none" font-family="Arial" font-size="13px" font-style="normal" font-weight="normal" text-decoration="none" x="319" y="467.5">+attatch(Plan)</text></g></g><g transform="translate(-166,-230) scale(1,1)"><rect fill="#C0C0C0" stroke="none" x="480" y="407" width="89.57080078125" height="83" opacity="0.2"/></g><g transform="translate(-166,-230) scale(1,1)"><rect fill="#6dceff" stroke="none" x="473" y="400" width="89.57080078125" height="83"/></g><g transform="translate(-166,-230) scale(1,1)"><path fill="none" stroke="#000000" d="M 473 400 L 562.57080078125 400 L 562.57080078125 483 L 473 483 L 473 400 Z Z" stroke-miterlimit="10"/></g><g transform="translate(-166,-230) scale(1,1)"><path fill="none" stroke="#000000" d="M 473 438 L 562.57080078125 438" stroke-miterlimit="10"/></g><g transform="translate(-166,-230) scale(1,1)"><path fill="none" stroke="#000000" d="M 473 448 L 562.57080078125 448" stroke-miterlimit="10"/></g><g transform="translate(-166,-230) scale(1,1)"><g><path fill="none" stroke="none"/><text fill="#000000" stroke="none" font-family="Arial" font-size="13px" font-style="normal" font-weight="normal" text-decoration="none" x="483.450927734375" y="417.5">«Singleton»</text></g></g><g transform="translate(-166,-230) scale(1,1)"><g><path fill="none" stroke="none"/><text fill="#000000" stroke="none" font-family="Arial" font-size="13px" font-style="italic" font-weight="bold" text-decoration="none" x="504.77587890625" y="432.5">Plan</text></g></g><g transform="translate(-166,-230) scale(1,1)"><g><path fill="none" stroke="none"/><text fill="#000000" stroke="none" font-family="Arial" font-size="13px" font-style="normal" font-weight="normal" text-decoration="none" x="478" y="465.5">+run()</text></g></g><g transform="translate(-166,-230) scale(1,1)"><rect fill="#C0C0C0" stroke="none" x="597" y="407" width="89.57080078125" height="83" opacity="0.2"/></g><g transform="translate(-166,-230) scale(1,1)"><rect fill="#ffa3ff" stroke="none" x="590" y="400" width="89.57080078125" height="83"/></g><g transform="translate(-166,-230) scale(1,1)"><path fill="none" stroke="#000000" d="M 590 400 L 679.57080078125 400 L 679.57080078125 483 L 590 483 L 590 400 Z Z" stroke-miterlimit="10"/></g><g transform="translate(-166,-230) scale(1,1)"><path fill="none" stroke="#000000" d="M 590 438 L 679.57080078125 438" stroke-miterlimit="10"/></g><g transform="translate(-166,-230) scale(1,1)"><path fill="none" stroke="#000000" d="M 590 448 L 679.57080078125 448" stroke-miterlimit="10"/></g><g transform="translate(-166,-230) scale(1,1)"><g><path fill="none" stroke="none"/><text fill="#000000" stroke="none" font-family="Arial" font-size="13px" font-style="normal" font-weight="normal" text-decoration="none" x="600.450927734375" y="417.5">«Singleton»</text></g></g><g transform="translate(-166,-230) scale(1,1)"><g><path fill="none" stroke="none"/><text fill="#000000" stroke="none" font-family="Arial" font-size="13px" font-style="normal" font-weight="bold" text-decoration="none" x="611.299072265625" y="432.5">Execute</text></g></g><g transform="translate(-166,-230) scale(1,1)"><g><path fill="none" stroke="none"/><text fill="#000000" stroke="none" font-family="Arial" font-size="13px" font-style="normal" font-weight="normal" text-decoration="none" x="595" y="465.5">+run()</text></g></g><g transform="translate(-166,-230) scale(1,1)"><rect fill="#C0C0C0" stroke="none" x="415" y="255" width="139.69189453125" height="72" opacity="0.2"/></g><g transform="translate(-166,-230) scale(1,1)"><rect fill="#ffffff" stroke="none" x="408" y="248" width="139.69189453125" height="72"/></g><g transform="translate(-166,-230) scale(1,1)"><path fill="none" stroke="#000000" d="M 408 248 L 547.69189453125 248 L 547.69189453125 320 L 408 320 L 408 248 Z Z" stroke-miterlimit="10"/></g><g transform="translate(-166,-230) scale(1,1)"><path fill="none" stroke="#000000" d="M 408 273 L 547.69189453125 273" stroke-miterlimit="10"/></g><g transform="translate(-166,-230) scale(1,1)"><path fill="none" stroke="#000000" d="M 408 283 L 547.69189453125 283" stroke-miterlimit="10"/></g><g transform="translate(-166,-230) scale(1,1)"><g><path fill="none" stroke="none"/><text fill="#000000" stroke="none" font-family="Arial" font-size="13px" font-style="italic" font-weight="bold" text-decoration="none" x="451.115966796875" y="267.5">Observer</text></g></g><g transform="translate(-166,-230) scale(1,1)"><g><path fill="none" stroke="none"/><text fill="#000000" stroke="none" font-family="Arial" font-size="13px" font-style="normal" font-weight="normal" text-decoration="none" x="413" y="300.5">+getValue(Value): bool</text></g></g><g transform="translate(-166,-230) scale(1,1)"><g><path fill="none" stroke="none"/><text fill="#000000" stroke="none" font-family="Arial" font-size="13px" font-style="normal" font-weight="normal" text-decoration="none" x="413" y="315.5">+update(Value)</text></g></g><g transform="translate(-166,-230) scale(1,1)"><rect fill="#C0C0C0" stroke="none" x="191" y="255" width="114.12353515625" height="85" opacity="0.2"/></g><g transform="translate(-166,-230) scale(1,1)"><rect fill="#ffffff" stroke="none" x="184" y="248" width="114.12353515625" height="85"/></g><g transform="translate(-166,-230) scale(1,1)"><path fill="none" stroke="#000000" d="M 184 248 L 298.12353515625 248 L 298.12353515625 333 L 184 333 L 184 248 Z Z" stroke-miterlimit="10"/></g><g transform="translate(-166,-230) scale(1,1)"><path fill="none" stroke="#000000" d="M 184 273 L 298.12353515625 273" stroke-miterlimit="10"/></g><g transform="translate(-166,-230) scale(1,1)"><path fill="none" stroke="#000000" d="M 184 283 L 298.12353515625 283" stroke-miterlimit="10"/></g><g transform="translate(-166,-230) scale(1,1)"><g><path fill="none" stroke="none"/><text fill="#000000" stroke="none" font-family="Arial" font-size="13px" font-style="italic" font-weight="bold" text-decoration="none" x="213.963623046875" y="267.5">Publisher</text></g></g><g transform="translate(-166,-230) scale(1,1)"><g><path fill="none" stroke="none"/><text fill="#000000" stroke="none" font-family="Arial" font-size="13px" font-style="normal" font-weight="normal" text-decoration="none" x="189" y="300.5">+attach(Observer)</text></g></g><g transform="translate(-166,-230) scale(1,1)"><g><path fill="none" stroke="none"/><text fill="#000000" stroke="none" font-family="Arial" font-size="13px" font-style="normal" font-weight="normal" text-decoration="none" x="189" y="315.5">+publish(Value)</text></g></g><g transform="translate(-166,-230) scale(1,1)"><rect fill="#C0C0C0" stroke="none" x="599" y="247" width="93.17626953125" height="98" opacity="0.2"/></g><g transform="translate(-166,-230) scale(1,1)"><rect fill="#ffffff" stroke="none" x="592" y="240" width="93.17626953125" height="98"/></g><g transform="translate(-166,-230) scale(1,1)"><path fill="none" stroke="#000000" d="M 592 240 L 685.17626953125 240 L 685.17626953125 338 L 592 338 L 592 240 Z Z" stroke-miterlimit="10"/></g><g transform="translate(-166,-230) scale(1,1)"><path fill="none" stroke="#000000" d="M 592 278 L 685.17626953125 278" stroke-miterlimit="10"/></g><g transform="translate(-166,-230) scale(1,1)"><path fill="none" stroke="#000000" d="M 592 288 L 685.17626953125 288" stroke-miterlimit="10"/></g><g transform="translate(-166,-230) scale(1,1)"><g><path fill="none" stroke="none"/><text fill="#000000" stroke="none" font-family="Arial" font-size="13px" font-style="normal" font-weight="normal" text-decoration="none" x="604.253662109375" y="257.5">«Singleton»</text></g></g><g transform="translate(-166,-230) scale(1,1)"><g><path fill="none" stroke="none"/><text fill="#000000" stroke="none" font-family="Arial" font-size="13px" font-style="normal" font-weight="bold" text-decoration="none" x="615.46044921875" y="272.5">Pipeline</text></g></g><g transform="translate(-166,-230) scale(1,1)"><g><path fill="none" stroke="none"/><text fill="#000000" stroke="none" font-family="Arial" font-size="13px" font-style="normal" font-weight="normal" text-decoration="none" x="597" y="305.5">+push(Action)</text></g></g><g transform="translate(-166,-230) scale(1,1)"><g><path fill="none" stroke="none"/><text fill="#000000" stroke="none" font-family="Arial" font-size="13px" font-style="normal" font-weight="normal" text-decoration="none" x="597" y="320.5">+next(): Action</text></g></g><g transform="translate(-166,-230) scale(1,1)"><rect fill="#C0C0C0" stroke="none" x="247" y="687" width="88" height="56" opacity="0.2"/></g><g transform="translate(-166,-230) scale(1,1)"><rect fill="#ffffff" stroke="none" x="240" y="680" width="88" height="56"/></g><g transform="translate(-166,-230) scale(1,1)"><path fill="none" stroke="#000000" d="M 240 680 L 328 680 L 328 736 L 240 736 L 240 680 Z Z" stroke-miterlimit="10"/></g><g transform="translate(-166,-230) scale(1,1)"><path fill="none" stroke="#000000" d="M 240 705 L 328 705" stroke-miterlimit="10"/></g><g transform="translate(-166,-230) scale(1,1)"><path fill="none" stroke="#000000" d="M 240 715 L 328 715" stroke-miterlimit="10"/></g><g transform="translate(-166,-230) scale(1,1)"><g><path fill="none" stroke="none"/><text fill="#000000" stroke="none" font-family="Arial" font-size="13px" font-style="normal" font-weight="bold" text-decoration="none" x="259.793212890625" y="699.5">Actuator</text></g></g><g transform="translate(-166,-230) scale(1,1)"><rect fill="#C0C0C0" stroke="none" x="751" y="423" width="89.57080078125" height="57" opacity="0.2"/></g><g transform="translate(-166,-230) scale(1,1)"><rect fill="#ffffff" stroke="none" x="744" y="416" width="89.57080078125" height="57"/></g><g transform="translate(-166,-230) scale(1,1)"><path fill="none" stroke="#000000" d="M 744 416 L 833.57080078125 416 L 833.57080078125 473 L 744 473 L 744 416 Z Z" stroke-miterlimit="10"/></g><g transform="translate(-166,-230) scale(1,1)"><path fill="none" stroke="#000000" d="M 744 441 L 833.57080078125 441" stroke-miterlimit="10"/></g><g transform="translate(-166,-230) scale(1,1)"><path fill="none" stroke="#000000" d="M 744 451 L 833.57080078125 451" stroke-miterlimit="10"/></g><g transform="translate(-166,-230) scale(1,1)"><g><path fill="none" stroke="none"/><text fill="#000000" stroke="none" font-family="Arial" font-size="13px" font-style="italic" font-weight="bold" text-decoration="none" x="770.719970703125" y="435.5">Action</text></g></g><g transform="translate(-166,-230) scale(1,1)"><g><path fill="none" stroke="none"/><text fill="#000000" stroke="none" font-family="Arial" font-size="13px" font-style="italic" font-weight="normal" text-decoration="none" x="749" y="468.5">+run()</text></g></g><g transform="translate(-166,-230) scale(1,1)"><path fill="none" stroke="#000000" d="M 407 286 L 299 289" stroke-miterlimit="10"/></g><g transform="translate(-166,-230) scale(1,1)"><path fill="#FFFFFF" stroke="none" d="M 309.0418703775052 284.50991767097923 L 299 289 L 309.27564230266665 292.9257069767938 L 320.9915172543598 288.38912452071224"/></g><g transform="translate(-166,-230) scale(1,1)"><path fill="none" stroke="#000000" d="M 309.0418703775052 284.50991767097923 L 299 289 L 309.27564230266665 292.9257069767938 L 320.9915172543598 288.38912452071224 L 309.0418703775052 284.50991767097923" stroke-miterlimit="10"/></g><g transform="translate(-166,-230) scale(1,1)"><g><path fill="none" stroke="none"/><text fill="#000000" stroke="none" font-family="Arial" font-size="13px" font-style="normal" font-weight="normal" text-decoration="none" x="375.5" y="280.5">1..*</text></g></g><g transform="translate(-166,-230) scale(1,1)"><path fill="none" stroke="#000000" d="M 506 399 L 486 321" stroke-miterlimit="10"/></g><g transform="translate(-166,-230) scale(1,1)"><path fill="#FFFFFF" stroke="none" d="M 499.2035313422854 338.5973509396525 L 486 321 L 482.89310036739136 342.77951272808684"/></g><g transform="translate(-166,-230) scale(1,1)"><path fill="none" stroke="#000000" d="M 499.2035313422854 338.5973509396525 L 486 321 L 482.89310036739136 342.77951272808684 L 499.2035313422854 338.5973509396525" stroke-miterlimit="10"/></g><g transform="translate(-166,-230) scale(1,1)"><path fill="none" stroke="#000000" d="M 404 399 L 453 321" stroke-miterlimit="10"/></g><g transform="translate(-166,-230) scale(1,1)"><path fill="#FFFFFF" stroke="none" d="M 449.31698605943626 342.68952300797815 L 453 321 L 435.0589070677798 333.7325246670658"/></g><g transform="translate(-166,-230) scale(1,1)"><path fill="none" stroke="#000000" d="M 449.31698605943626 342.68952300797815 L 453 321 L 435.0589070677798 333.7325246670658 L 449.31698605943626 342.68952300797815" stroke-miterlimit="10"/></g><g transform="translate(-166,-230) scale(1,1)"><path fill="none" stroke="#000000" d="M 345 399 L 283 334" stroke-miterlimit="10"/></g><g transform="translate(-166,-230) scale(1,1)"><path fill="#FFFFFF" stroke="none" d="M 303.12086191183124 342.89668005072787 L 283 334 L 290.93669510725726 354.5185006950907"/></g><g transform="translate(-166,-230) scale(1,1)"><path fill="none" stroke="#000000" d="M 303.12086191183124 342.89668005072787 L 283 334 L 290.93669510725726 354.5185006950907 L 303.12086191183124 342.89668005072787" stroke-miterlimit="10"/></g><g transform="translate(-166,-230) scale(1,1)"><path fill="none" stroke="#000000" d="M 637 339 L 635 399" stroke-miterlimit="10"/></g><g transform="translate(-166,-230) scale(1,1)"><path fill="#000000" stroke="none" d="M 631.1313867055028 388.7027270028595 L 635 399 L 639.5457488696798 388.9832057416654 L 635.7329262651181 377.0122120464586"/></g><g transform="translate(-166,-230) scale(1,1)"><path fill="none" stroke="#000000" d="M 631.1313867055028 388.7027270028595 L 635 399 L 639.5457488696798 388.9832057416654 L 635.7329262651181 377.0122120464586 L 631.1313867055028 388.7027270028595" stroke-miterlimit="10"/></g><g transform="translate(-166,-230) scale(1,1)"><path fill="none" stroke="#000000" d="M 550 399 L 598 339" stroke-miterlimit="10"/></g><g transform="translate(-166,-230) scale(1,1)"><path fill="none" stroke="#000000" d="M 594.9385084650058 349.5653807116052 L 598 339 L 588.3643462280668 344.306050922054" stroke-miterlimit="10"/></g><g transform="translate(-166,-230) scale(1,1)"><path fill="none" stroke="#000000" d="M 757 551 L 661 339" stroke-miterlimit="10"/></g><g transform="translate(-166,-230) scale(1,1)"><path fill="none" stroke="#000000" d="M 669.0268579371449 346.52127327364815 L 661 339 L 661.3575023440225 349.99418901392994" stroke-miterlimit="10"/></g><g transform="translate(-166,-230) scale(1,1)"><path fill="none" stroke="#000000" d="M 686 339 L 760 415" stroke-miterlimit="10"/></g><g transform="translate(-166,-230) scale(1,1)"><path fill="none" stroke="#000000" d="M 749.894350285844 410.6553660850679 L 760 415 L 755.926346661846 404.7821064558028" stroke-miterlimit="10"/></g><g transform="translate(-166,-230) scale(1,1)"><g><path fill="none" stroke="none"/><text fill="#000000" stroke="none" font-family="Arial" font-size="13px" font-style="normal" font-weight="normal" text-decoration="none" x="732.5" y="414.5">*</text></g></g><g transform="translate(-166,-230) scale(1,1)"><path fill="none" stroke="#000000" d="M 350 631 L 431 681" stroke-miterlimit="10"/></g><g transform="translate(-166,-230) scale(1,1)"><path fill="#000000" stroke="none" d="M 420.14108294794124 679.243890534019 L 431 681 L 424.56334302804805 672.079829204246 L 412.2794055768311 669.4440775165624"/></g><g transform="translate(-166,-230) scale(1,1)"><path fill="none" stroke="#000000" d="M 420.14108294794124 679.243890534019 L 431 681 L 424.56334302804805 672.079829204246 L 412.2794055768311 669.4440775165624 L 420.14108294794124 679.243890534019" stroke-miterlimit="10"/></g><g transform="translate(-166,-230) scale(1,1)"><g><path fill="none" stroke="none"/><text fill="#000000" stroke="none" font-family="Arial" font-size="13px" font-style="normal" font-weight="normal" text-decoration="none" x="351.5" y="659.5">1..*</text></g></g><g transform="translate(-166,-230) scale(1,1)"><rect fill="#C0C0C0" stroke="none" x="535" y="551" width="78.33544921875" height="57" opacity="0.2"/></g><g transform="translate(-166,-230) scale(1,1)"><rect fill="#a3ffa3" stroke="none" x="528" y="544" width="78.33544921875" height="57"/></g><g transform="translate(-166,-230) scale(1,1)"><path fill="none" stroke="#000000" d="M 528 544 L 606.33544921875 544 L 606.33544921875 601 L 528 601 L 528 544 Z Z" stroke-miterlimit="10"/></g><g transform="translate(-166,-230) scale(1,1)"><path fill="none" stroke="#000000" d="M 528 582 L 606.33544921875 582" stroke-miterlimit="10"/></g><g transform="translate(-166,-230) scale(1,1)"><path fill="none" stroke="#000000" d="M 528 592 L 606.33544921875 592" stroke-miterlimit="10"/></g><g transform="translate(-166,-230) scale(1,1)"><g><path fill="none" stroke="none"/><text fill="#000000" stroke="none" font-family="Arial" font-size="13px" font-style="normal" font-weight="normal" text-decoration="none" x="532.833251953125" y="561.5">«Singleton»</text></g></g><g transform="translate(-166,-230) scale(1,1)"><g><path fill="none" stroke="none"/><text fill="#000000" stroke="none" font-family="Arial" font-size="13px" font-style="normal" font-weight="bold" text-decoration="none" x="535.004150390625" y="576.5">Knowledge</text></g></g><g transform="translate(-166,-230) scale(1,1)"><path fill="none" stroke="#000000" d="M 329 708 L 431 708" stroke-miterlimit="10"/></g><g transform="translate(-166,-230) scale(1,1)"><path fill="#000000" stroke="none" d="M 420.83732514237585 712.209517756016 L 431 708 L 420.83732514237585 703.790482243984 L 409 708"/></g><g transform="translate(-166,-230) scale(1,1)"><path fill="none" stroke="#000000" d="M 420.83732514237585 712.209517756016 L 431 708 L 420.83732514237585 703.790482243984 L 409 708 L 420.83732514237585 712.209517756016" stroke-miterlimit="10"/></g><g transform="translate(-166,-230) scale(1,1)"><g><path fill="none" stroke="none"/><text fill="#000000" stroke="none" font-family="Arial" font-size="13px" font-style="normal" font-weight="normal" text-decoration="none" x="340.5" y="726.5">1..*</text></g></g><g transform="translate(-166,-230) scale(1,1)"><path fill="none" stroke="#000000" d="M 743 470 L 607 549" stroke-miterlimit="10"/></g><g transform="translate(-166,-230) scale(1,1)"><path fill="none" stroke="#000000" d="M 613.6732696081399 540.255431815288 L 607 549 L 617.9020576545597 547.5353707306438" stroke-miterlimit="10"/></g><g transform="translate(-166,-230) scale(1,1)"><path fill="none" stroke="#000000" d="M 288 464 L 527 557" stroke-miterlimit="10"/></g><g transform="translate(-166,-230) scale(1,1)"><path fill="none" stroke="#000000" d="M 516.0025673809782 557.2376463550645 L 527 557 L 519.0555994702572 549.391682168638" stroke-miterlimit="10"/></g><g transform="translate(-166,-230) scale(1,1)"><path fill="none" stroke="#000000" d="M 431 473 L 527 543" stroke-miterlimit="10"/></g><g transform="translate(-166,-230) scale(1,1)"><path fill="none" stroke="#000000" d="M 516.3083515297653 540.4137569741168 L 527 543 L 521.2686128460327 533.6111128832359" stroke-miterlimit="10"/></g><g transform="translate(-166,-230) scale(1,1)"><path fill="none" stroke="#000000" d="M 533 484 L 556 543" stroke-miterlimit="10"/></g><g transform="translate(-166,-230) scale(1,1)"><path fill="none" stroke="#000000" d="M 548.3867917397205 535.0602859002598 L 556 543 L 556.2308744931796 532.0024231319622" stroke-miterlimit="10"/></g><g transform="translate(-166,-230) scale(1,1)"><path fill="none" stroke="#000000" d="M 612 484 L 582 543" stroke-miterlimit="10"/></g><g transform="translate(-166,-230) scale(1,1)"><path fill="none" stroke="#000000" d="M 582.8538970692574 532.0331928167259 L 582 543 L 590.3585001353657 535.8490926808487" stroke-miterlimit="10"/></g><g transform="translate(-166,-230) scale(1,1)"><path fill="none" stroke="#000000" d="M 719 578 L 607 574" stroke-miterlimit="10"/></g><g transform="translate(-166,-230) scale(1,1)"><path fill="#000000" stroke="none" d="M 617.3064438849527 570.1558857396898 L 607 574 L 617.0059556220899 578.5695570998474 L 628.9859827956461 574.785213671273"/></g><g transform="translate(-166,-230) scale(1,1)"><path fill="none" stroke="#000000" d="M 617.3064438849527 570.1558857396898 L 607 574 L 617.0059556220899 578.5695570998474 L 628.9859827956461 574.785213671273 L 617.3064438849527 570.1558857396898" stroke-miterlimit="10"/></g><g transform="translate(-166,-230) scale(1,1)"><path fill="none" stroke="#000000" d="M 501 671 L 547 602" stroke-miterlimit="10"/></g><g transform="translate(-166,-230) scale(1,1)"><path fill="#000000" stroke="none" d="M 544.8652927502162 612.7908769318217 L 547 602 L 537.8602317743891 608.1208362812704 L 534.796595683045 620.3051064754326"/></g><g transform="translate(-166,-230) scale(1,1)"><path fill="none" stroke="#000000" d="M 544.8652927502162 612.7908769318217 L 547 602 L 537.8602317743891 608.1208362812704 L 534.796595683045 620.3051064754326 L 544.8652927502162 612.7908769318217" stroke-miterlimit="10"/></g><g transform="translate(-166,-230) scale(1,1)"><rect fill="#C0C0C0" stroke="none" x="562" y="679" width="98.57177734375" height="44" opacity="0.2"/></g><g transform="translate(-166,-230) scale(1,1)"><rect fill="#ffffff" stroke="none" x="555" y="672" width="98.57177734375" height="44"/></g><g transform="translate(-166,-230) scale(1,1)"><path fill="none" stroke="#000000" d="M 555 672 L 653.57177734375 672 L 653.57177734375 716 L 555 716 L 555 672 Z Z" stroke-miterlimit="10"/></g><g transform="translate(-166,-230) scale(1,1)"><path fill="none" stroke="#000000" d="M 555 697 L 653.57177734375 697" stroke-miterlimit="10"/></g><g transform="translate(-166,-230) scale(1,1)"><path fill="none" stroke="#000000" d="M 555 707 L 653.57177734375 707" stroke-miterlimit="10"/></g><g transform="translate(-166,-230) scale(1,1)"><g><path fill="none" stroke="none"/><text fill="#000000" stroke="none" font-family="Arial" font-size="13px" font-style="italic" font-weight="bold" text-decoration="none" x="562.37548828125" y="691.5">StrategyModel</text></g></g><g transform="translate(-166,-230) scale(1,1)"><rect fill="#C0C0C0" stroke="none" x="694" y="679" width="83.140625" height="57" opacity="0.2"/></g><g transform="translate(-166,-230) scale(1,1)"><rect fill="#ffffff" stroke="none" x="687" y="672" width="83.140625" height="57"/></g><g transform="translate(-166,-230) scale(1,1)"><path fill="none" stroke="#000000" d="M 687 672 L 770.140625 672 L 770.140625 729 L 687 729 L 687 672 Z Z" stroke-miterlimit="10"/></g><g transform="translate(-166,-230) scale(1,1)"><path fill="none" stroke="#000000" d="M 687 710 L 770.140625 710" stroke-miterlimit="10"/></g><g transform="translate(-166,-230) scale(1,1)"><path fill="none" stroke="#000000" d="M 687 720 L 770.140625 720" stroke-miterlimit="10"/></g><g transform="translate(-166,-230) scale(1,1)"><g><path fill="none" stroke="none"/><text fill="#000000" stroke="none" font-family="Arial" font-size="13px" font-style="normal" font-weight="normal" text-decoration="none" x="694.23583984375" y="689.5">«Singleton»</text></g></g><g transform="translate(-166,-230) scale(1,1)"><g><path fill="none" stroke="none"/><text fill="#000000" stroke="none" font-family="Arial" font-size="13px" font-style="italic" font-weight="bold" text-decoration="none" x="693.89306640625" y="704.5">WorldModel</text></g></g><g transform="translate(-166,-230) scale(1,1)"><path fill="none" stroke="#000000" d="M 597 671 L 576 602" stroke-miterlimit="10"/></g><g transform="translate(-166,-230) scale(1,1)"><path fill="#000000" stroke="none" d="M 582.986116518602 610.4967156000725 L 576 602 L 574.931845145838 612.9480155830877 L 582.4055555472194 623.0468253694349"/></g><g transform="translate(-166,-230) scale(1,1)"><path fill="none" stroke="#000000" d="M 582.986116518602 610.4967156000725 L 576 602 L 574.931845145838 612.9480155830877 L 582.4055555472194 623.0468253694349 L 582.986116518602 610.4967156000725" stroke-miterlimit="10"/></g><g transform="translate(-166,-230) scale(1,1)"><path fill="none" stroke="#000000" d="M 692 671 L 605 602" stroke-miterlimit="10"/></g><g transform="translate(-166,-230) scale(1,1)"><path fill="#000000" stroke="none" d="M 615.5782042337476 605.0168850142364 L 605 602 L 610.3466600948326 611.6131797980859 L 622.2369489399697 615.670683642045"/></g><g transform="translate(-166,-230) scale(1,1)"><path fill="none" stroke="#000000" d="M 615.5782042337476 605.0168850142364 L 605 602 L 610.3466600948326 611.6131797980859 L 622.2369489399697 615.670683642045 L 615.5782042337476 605.0168850142364" stroke-miterlimit="10"/></g><g transform="translate(-166,-230) scale(1,1)"><path fill="none" stroke="#000000" d="M 248 486 L 277 559" stroke-miterlimit="10"/></g><g transform="translate(-166,-230) scale(1,1)"><path fill="none" stroke="#000000" d="M 269.3358705595492 551.1094284161402 L 277 559 L 277.16011877515086 548.0011654263807" stroke-miterlimit="10"/></g><g transform="translate(-166,-230) scale(1,1)"><g><path fill="none" stroke="none"/><text fill="#000000" stroke="none" font-family="Arial" font-size="13px" font-style="normal" font-weight="normal" text-decoration="none" x="241.5" y="516.5">*</text></g></g><g transform="translate(-166,-230) scale(1,1)"><g><path fill="none" stroke="none"/><text fill="#000000" stroke="none" font-family="Arial" font-size="13px" font-style="normal" font-weight="normal" text-decoration="none" x="247.5" y="549.5">1..*</text></g></g><g transform="translate(-166,-230) scale(1,1)"><path fill="none" stroke="#000000" d="M 234 399 L 238 334" stroke-miterlimit="10"/></g><g transform="translate(-166,-230) scale(1,1)"><path fill="#FFFFFF" stroke="none" d="M 245.15471018179218 354.8040890743757 L 238 334 L 228.34843162606964 353.7698565478697"/></g><g transform="translate(-166,-230) scale(1,1)"><path fill="none" stroke="#000000" d="M 245.15471018179218 354.8040890743757 L 238 334 L 228.34843162606964 353.7698565478697 L 245.15471018179218 354.8040890743757" stroke-miterlimit="10"/></g></g></svg>